<svg width="124" height="92" viewBox="0 0 124 92" fill="none" xmlns="http://www.w3.org/2000/svg">
<path d="M1 17.0106V89C1 90.1046 1.89543 91 3 91H13C14.1046 91 15 90.1046 15 89V29C15 27.8954 15.8954 27 17 27H21C22.1046 27 23 27.8954 23 29V89C23 90.1046 23.8954 91 25 91H31C32.1046 91 33 90.1046 33 89V25.5C33 24.3954 33.8954 23.5 35 23.5H44C45.1046 23.5 46 24.3954 46 25.5V89C46 90.1046 46.8954 91 48 91H58C59.1046 91 60 90.1046 60 89V18.5775C60 17.1302 61.4897 16.1621 62.8123 16.7499L67.8123 18.9721C68.5345 19.2931 69 20.0094 69 20.7997V89C69 90.1046 69.8954 91 71 91H81C82.1046 91 83 90.1046 83 89V70.3669C83 69.129 84.1132 68.1884 85.3337 68.3949L113.834 73.218C114.796 73.3808 115.5 74.2142 115.5 75.19V89C115.5 90.1046 116.395 91 117.5 91H120.5C121.605 91 122.5 90.1046 122.5 89V16.6912C122.5 15.9572 122.098 15.2822 121.453 14.9326L111.203 9.38097C110.752 9.13641 110.224 9.07487 109.728 9.2091L91.4636 14.1557C89.7029 14.6325 89.4474 17.0245 91.0676 17.8626L114.419 29.9408C115.083 30.2843 115.5 30.9695 115.5 31.7172V32.614C115.5 34.136 113.868 35.1002 112.535 34.3655L52.7208 1.39727C52.259 1.14277 51.7155 1.08089 51.2084 1.22507L2.45305 15.0869C1.59321 15.3313 1 16.1167 1 17.0106Z" stroke="black" stroke-width="1.5" stroke-linejoin="round"/>
</svg>
