<svg width="150" height="149" viewBox="0 0 150 149" fill="none" xmlns="http://www.w3.org/2000/svg">
<path d="M50.0055 93.499V142.499H20.0054V148H149.005V142.499H61.0054L59.5054 93.499C64.6683 93.8361 66.655 92.8343 69.0054 89.499C88.0054 102.5 111.005 82 102.505 60.999C119.005 38.5 104.005 15 78.5054 24.4991C78.5054 -8.00004 32.0054 -5.50047 30.5056 27.999C4.50537 12.9991 -8.49465 51.9993 9.00548 60.999C7.4345 87.2475 22.5056 97.999 41.0055 89.499C42.0609 92.833 44.3329 93.4916 50.0055 93.499Z" stroke="black" stroke-width="1.5"/>
<path d="M82.5059 142V128" stroke="black" stroke-width="1.5"/>
<path d="M99.5059 142V128" stroke="black" stroke-width="1.5"/>
<path d="M102.006 134H80.0059" stroke="black" stroke-width="1.5"/>
<path d="M102.006 129H80.0059" stroke="black" stroke-width="1.5"/>
<path d="M102.006 137H80.0059" stroke="black" stroke-width="1.5"/>
<path d="M113.506 142V128" stroke="black" stroke-width="1.5"/>
<path d="M130.506 142V128" stroke="black" stroke-width="1.5"/>
<path d="M133.006 134H111.006" stroke="black" stroke-width="1.5"/>
<path d="M133.006 129H111.006" stroke="black" stroke-width="1.5"/>
<path d="M133.006 137H111.006" stroke="black" stroke-width="1.5"/>
</svg>
