<svg width="97" height="119" viewBox="0 0 97 119" fill="none" xmlns="http://www.w3.org/2000/svg">
<path d="M54.502 24.0348C54.7499 57.8329 78.4597 64.797 79.467 80.9355C79.5082 81.5966 79.173 82.2265 78.6163 82.5854C75.4944 84.5979 73.1289 85.4711 69.5008 85.8467C68.4 85.9607 67.4604 85.0969 67.3399 83.9968C65.5278 67.4541 52.4784 62.6931 49.4941 52.0216C49.143 50.7659 47.8131 49.9534 46.5822 50.3834C36.2477 53.9943 30.6443 53.6401 25.2811 49.2466C23.8522 48.076 21.5 48.9792 21.5 50.8264V58.2801C21.5 59.269 22.2266 60.1067 23.2012 60.2741C32.7825 61.9197 37.5686 64.6252 43.1387 72.4846C43.3743 72.817 43.5 73.2183 43.5 73.6257V86.5C43.5 87.6046 44.3954 88.5 45.5 88.5H53.9339C54.304 88.5 54.6669 88.6027 54.9821 88.7967L64.4518 94.6242C65.7843 95.4442 67.6589 94.4344 68.4802 93.1026C75.1133 82.3469 112.413 85.0006 87.1203 116.731C86.746 117.201 86.1517 117.5 85.5513 117.5H3C1.89543 117.5 1 116.605 1 115.5V108C1 106.895 1.89543 106 3 106H6C7.10457 106 8 105.105 8 104V80.5C8 79.3954 8.89543 78.5 10 78.5H16.5C17.6046 78.5 18.5 79.3954 18.5 80.5V104C18.5 105.105 19.3954 106 20.5 106H60.9549C61.8082 106 62.5 105.308 62.5 104.455C62.5 103.87 62.1693 103.335 61.6459 103.073L54.9223 99.7111C54.6446 99.5723 54.3384 99.5 54.0279 99.5H26.5C25.3954 99.5 24.5 98.6046 24.5 97.5V90.5C24.5 89.3954 25.3954 88.5 26.5 88.5H30C31.1046 88.5 32 87.6046 32 86.5V78.5C32 69.7372 9.24839 75.6681 1.58814 64.9109C1.19658 64.361 1.18857 63.6382 1.45985 63.0201C5.58924 53.6109 1.25967 44.9067 2.88426 31.3966C2.9526 30.8283 3.27067 30.3125 3.76141 30.0179C9.34172 26.6681 15.3128 27.0511 20.8861 28.8012C21.2864 28.9269 21.6365 29.1902 21.8839 29.529C30.7731 41.7064 35.9676 43.6274 44.4001 38.6729C45.0752 38.2763 45.4314 37.5024 45.3244 36.7269L43.6358 24.4843C43.5503 23.864 43.7532 23.2303 44.2313 22.8259C47.9117 19.712 52.1941 20.092 54.223 23.054C54.4171 23.3374 54.4994 23.6912 54.502 24.0348Z" stroke="black" stroke-width="1.5" stroke-linejoin="round"/>
<circle cx="20" cy="12.5" r="11.5" stroke="black" stroke-width="1.5"/>
</svg>
