<svg width="65" height="65" viewBox="0 0 65 65" fill="none" xmlns="http://www.w3.org/2000/svg">
<path d="M4 36V32L19 25.5L34.5 32V36M4 36V63.5H15M4 36H1V28.5L5 26.6111M34.5 36V63.5H22.5M34.5 36H37V28.5L19 20L10 24.25M10 24.25V18H5V26.6111M10 24.25L5 26.6111M22.5 63.5V48.5H15V63.5M22.5 63.5H15" stroke="#8E9BBE" stroke-width="1.2"/>
<circle cx="19" cy="40.5" r="4" stroke="#8E9BBE" stroke-width="1.2"/>
<path d="M34.5 41.5H59M34.5 63.5H41.5M41.5 63.5V49H51V63.5M41.5 63.5H51M51 63.5H61.5V41.5H59M59 41.5V15.5M59 15.5L46.5 8L34.5 14.5M59 15.5L63.5 18V17V10L46.5 1L30 10V17L34.5 14.5M34.5 14.5V27" stroke="#8E9BBE" stroke-width="1.2"/>
<rect x="42.6" y="22.1" width="7.8" height="8.8" stroke="#8E9BBE" stroke-width="1.2"/>
</svg>
