<svg width="67" height="62" viewBox="0 0 67 62" fill="none" xmlns="http://www.w3.org/2000/svg">
<path d="M4 2V46.5M4 2L7.5 6M4 2L1 6M4 46.5L7.5 43M4 46.5L1 43" stroke="#8E9BBE" stroke-width="1.2"/>
<path d="M56 57.7692L14 57.7692M56 57.7692L52.2247 61M56 57.7692L52.2247 55M14 57.7692L17.3034 61M14 57.7692L17.3034 55" stroke="#8E9BBE" stroke-width="1.2"/>
<path d="M14 25.5L41.5 1L60 19.5M66.5 26L60 19.5M60 19.5V45.5H47.5V31H33.5V45.5H21V19.5" stroke="#8E9BBE" stroke-width="1.2"/>
<path d="M57.5 17V3H49.5V9" stroke="#8E9BBE" stroke-width="1.2"/>
</svg>
