<svg width="64" height="52" viewBox="0 0 64 52" fill="none" xmlns="http://www.w3.org/2000/svg">
<path d="M60.5112 20.3784H44.0112C38.0112 18.8782 40.0112 12.3784 45.0112 12.3784C46.0112 2.87815 57.0112 2.87808 58.0112 12.3784C64.5112 12.3784 63.5112 18.8784 60.5112 20.3784Z" stroke="#8E9BBE" stroke-width="1.2"/>
<path d="M27.0114 24.3782C34.0114 21.8782 31.5114 10.8782 22.5114 11.8783C31.5114 -2.12183 5.51135 -3.12173 14.0114 11.8783C5.51135 11.8783 2.51135 17.8782 7.5115 24.3782C-5.48865 31.3782 2.5114 48.3783 18.0115 39.3783C32.0114 49.3782 41.0114 29.3782 27.0114 24.8782" stroke="#8E9BBE" stroke-width="1.2"/>
<path d="M1.01123 51.3782H15.5112M58.0112 51.3782H20.0112M20.0112 51.3782V40.8782M20.0112 51.3782H15.5112M15.5112 51.3782V40.8782" stroke="#8E9BBE" stroke-width="1.2"/>
<path d="M38.5112 51.8782V37.8782" stroke="#8E9BBE" stroke-width="1.2"/>
<path d="M55.5112 51.8782V37.8782" stroke="#8E9BBE" stroke-width="1.2"/>
<path d="M58.0112 43.8782H36.0112" stroke="#8E9BBE" stroke-width="1.2"/>
<path d="M58.0112 38.8782H36.0112" stroke="#8E9BBE" stroke-width="1.2"/>
<path d="M58.0112 46.8782H36.0112" stroke="#8E9BBE" stroke-width="1.2"/>
<path d="M18.0112 39.3782V24.8782M18.0112 39.3782L24.5112 31.8782M18.0112 39.3782L10.5112 31.3782M18.0112 18.8782V24.8782M18.0112 24.8782L23.0112 21.3782M18.0112 24.8782L13.0112 21.3782" stroke="#8E9BBE" stroke-width="1.2"/>
</svg>
