<svg width="157" height="89" viewBox="0 0 157 89" fill="none" xmlns="http://www.w3.org/2000/svg">
<path d="M141.848 15.9464C137.874 14.639 133.006 20.0445 133.5 23.5001C133.978 31.3031 129.879 35.4441 116.155 42.18C115.736 42.3855 115.388 42.7307 115.217 43.1646C114.713 44.4428 114.603 45.4065 114.938 46.5782C115.187 47.4465 116.12 47.8889 117.003 47.701C129.525 45.0376 133.679 39.6093 139.835 27.7472C140.651 26.1737 142.946 26.3635 143.029 28.1343C143.049 28.5671 143.048 29.0183 143.027 29.5075C143.013 29.8309 142.911 30.1453 142.742 30.4212C139.623 35.5021 137.622 38.531 133.905 43.4634C133.643 43.8116 133.5 44.2359 133.5 44.6719V49.6595C133.5 50.1971 133.28 50.714 132.899 51.0938C124 59.9749 121.25 66.6144 121 81V85.9754C121 86.8759 121.6 87.6758 122.481 87.8602C124.666 88.3171 126.513 88.3494 127.801 87.8561C128.273 87.6754 128.565 87.2268 128.682 86.7352L132.328 71.4219C132.748 69.6579 135.111 69.3185 136.01 70.8929L145.063 86.7343C145.341 87.2221 145.814 87.5741 146.365 87.6821C153.257 89.0316 157.29 87.3047 155.589 81.2995C155.533 81.1033 155.441 80.9146 155.325 80.7467L145.854 67.0127C145.623 66.6788 145.5 66.2828 145.5 65.8772V52.0616C145.5 51.1439 146.161 50.3742 146.907 49.84C153.306 45.2584 151.851 21.843 142.138 16.0805C142.046 16.0259 141.949 15.9799 141.848 15.9464Z" stroke="black" stroke-width="1.5" stroke-linejoin="round"/>
<circle cx="128.5" cy="9.5" r="8.5" stroke="black" stroke-width="1.5"/>
<path d="M15.8761 15.9464C19.8495 14.639 24.7172 20.0445 24.2236 23.5001C23.7454 31.3031 27.8448 35.4441 41.5685 42.18C41.9872 42.3855 42.3357 42.7307 42.5068 43.1646C43.0108 44.4428 43.1205 45.4065 42.7854 46.5782C42.537 47.4465 41.6041 47.8889 40.7208 47.701C28.1988 45.0376 24.0442 39.6093 17.8888 27.7472C17.0723 26.1737 14.7775 26.3635 14.6944 28.1343C14.6741 28.5671 14.6752 29.0183 14.6964 29.5075C14.7105 29.8309 14.8125 30.1453 14.9819 30.4212C18.1007 35.5021 20.1021 38.531 23.8183 43.4634C24.0806 43.8116 24.2236 44.2359 24.2236 44.6719V49.6595C24.2236 50.1971 24.4436 50.714 24.8242 51.0938C33.7234 59.9749 36.4739 66.6144 36.7236 81V85.9754C36.7236 86.8759 36.1237 87.6758 35.2423 87.8602C33.0578 88.3171 31.2108 88.3494 29.9223 87.8561C29.4504 87.6754 29.1586 87.2268 29.0415 86.7352L25.3955 71.4219C24.9755 69.6579 22.613 69.3185 21.7134 70.8929L12.6611 86.7343C12.3824 87.2221 11.9099 87.5741 11.3586 87.6821C4.46623 89.0316 0.433205 87.3047 2.13509 81.2995C2.19068 81.1033 2.28254 80.9146 2.39829 80.7467L11.87 67.0127C12.1003 66.6788 12.2236 66.2828 12.2236 65.8772V52.0616C12.2236 51.1439 11.5628 50.3742 10.8166 49.84C4.4179 45.2584 5.87233 21.843 15.5854 16.0805C15.6774 16.0259 15.7744 15.9799 15.8761 15.9464Z" stroke="black" stroke-width="1.5" stroke-linejoin="round"/>
<circle r="8.5" transform="matrix(-1 0 0 1 29.2236 9.5)" stroke="black" stroke-width="1.5"/>
<path d="M54.4515 65.6209L44.1925 86.585C43.7863 87.415 42.8643 87.8587 41.9622 87.6583L41.5695 87.571C40.2781 87.284 39.6161 85.8447 40.2387 84.6775L49.4314 67.4412C50.1419 66.109 49.1765 64.5 47.6667 64.5H44C42.8954 64.5 42 63.6046 42 62.5V52.5C42 51.9477 42.4477 51.5 43 51.5H113.5C114.605 51.5 115.5 52.3954 115.5 53.5V62.5C115.5 63.6046 114.605 64.5 113.5 64.5H110.268C108.774 64.5 107.807 66.0795 108.487 67.4102L117.781 85.5933C118.191 86.3951 117.935 87.3768 117.186 87.8763C116.293 88.4713 115.081 88.144 114.609 87.1807L104.049 65.6203C103.713 64.9346 103.016 64.5 102.253 64.5H56.2479C55.4842 64.5 54.7872 64.9349 54.4515 65.6209Z" stroke="black" stroke-width="1.5" stroke-linejoin="round"/>
<path d="M46.5 49V42H51.5V49H46.5Z" stroke="black" stroke-width="1.5" stroke-linejoin="round"/>
<path d="M56.5 49V42H61.5V49H56.5Z" stroke="black" stroke-width="1.5" stroke-linejoin="round"/>
<path d="M66.5 49V42H71.5V49H66.5Z" stroke="black" stroke-width="1.5" stroke-linejoin="round"/>
<path d="M76.5 49V42H81.5V49H76.5Z" stroke="black" stroke-width="1.5" stroke-linejoin="round"/>
<path d="M86.5 49V42H91.5V49H86.5Z" stroke="black" stroke-width="1.5" stroke-linejoin="round"/>
<path d="M96.5 49V42H101.5V49H96.5Z" stroke="black" stroke-width="1.5" stroke-linejoin="round"/>
<path d="M106.5 49V42H111.5V49H106.5Z" stroke="black" stroke-width="1.5" stroke-linejoin="round"/>
</svg>
