<svg width="14" height="14" viewBox="0 0 14 14" fill="none" xmlns="http://www.w3.org/2000/svg">
<g clip-path="url(#clip0_493_545)">
<path d="M6.55408 10.8125C4.69609 10.8125 3.19189 9.3067 3.19189 7.45034C3.19189 5.59234 4.69773 4.08815 6.55408 4.08815C8.41208 4.08815 9.91628 5.59398 9.91628 7.45034C9.91628 9.30834 8.41044 10.8125 6.55408 10.8125ZM6.55408 5.26803C5.348 5.26803 4.37177 6.2448 4.37177 7.45034C4.37177 8.65588 5.34854 9.63265 6.55408 9.63265C7.75962 9.63265 8.7364 8.65588 8.7364 7.45034C8.73694 6.2448 7.76017 5.26803 6.55408 5.26803Z" fill="white"/>
<path d="M9.25352 13.9585C8.04798 14.0147 5.06197 14.012 3.85534 13.9585C2.79503 13.9088 1.85976 13.6527 1.10575 12.8987C-0.15439 11.6386 0.00667593 9.94055 0.00667593 7.4503C0.00667593 4.90163 -0.135281 3.24292 1.10575 2.00189C2.3708 0.737386 4.09339 0.90282 6.55416 0.90282C9.0788 0.90282 9.9502 0.901182 10.8429 1.24679C12.0566 1.71798 12.9728 2.80286 13.0623 4.75149C13.1191 5.95757 13.1158 8.94303 13.0623 10.1497C12.9542 12.4499 11.7197 13.8449 9.25352 13.9585ZM11.1617 2.83562C10.3357 2.00954 9.18964 2.08325 6.53832 2.08325C3.80839 2.08325 2.71368 2.04284 1.9149 2.84381C0.994913 3.75943 1.16144 5.22977 1.16144 7.45904C1.16144 10.4756 0.851865 12.6481 3.87937 12.8032C4.57495 12.8277 4.7797 12.8359 6.53068 12.8359L6.55525 12.8195C9.46482 12.8195 11.7476 13.1242 11.8846 10.0972C11.9158 9.40658 11.9229 9.1991 11.9229 7.45085C11.9223 4.75258 11.9736 3.65132 11.1617 2.83562Z" fill="white"/>
<path d="M10.0493 10.1595C10.4833 10.1595 10.835 10.5113 10.835 10.9452C10.835 11.3791 10.4833 11.7309 10.0493 11.7309C9.61543 11.7309 9.26367 11.3791 9.26367 10.9452C9.26367 10.5113 9.61543 10.1595 10.0493 10.1595Z" fill="white"/>
</g>
<defs>
<clipPath id="clip0_493_545">
<rect width="13.1037" height="13.1037" fill="white" transform="matrix(1 0 0 -1 0 14)"/>
</clipPath>
</defs>
</svg>
