<svg width="28" height="28" viewBox="0 0 28 28" fill="none" xmlns="http://www.w3.org/2000/svg">
<path d="M27.9548 21.1633L26.6834 26.6755C26.5048 27.4548 25.8199 28 25.0177 28C11.2213 27.9989 0 16.7776 0 2.98064C0 2.17896 0.545152 1.49322 1.32446 1.31549L6.83669 0.0440697C7.63946 -0.141968 8.45973 0.27473 8.79331 1.03496L11.3372 6.96825C11.6346 7.66712 11.434 8.48138 10.8462 8.96151L7.90194 11.3255C9.76013 15.1108 12.8378 18.1885 16.6242 20.0477L19.0347 17.1057C19.5098 16.5162 20.3301 16.3122 21.029 16.6149L26.9623 19.1583C27.6759 19.5337 28.1408 20.3649 27.9548 21.1633Z" fill="white"/>
</svg>
