<svg width="95" height="127" viewBox="0 0 95 127" fill="none" xmlns="http://www.w3.org/2000/svg">
<circle cx="36.5" cy="12.5" r="11.5" stroke="black" stroke-width="1.5"/>
<path d="M47.9997 107H17.4998C-6 90 -0.000244141 64.5 13.4998 65.5C23.1112 67.7325 30.9993 69 41.9993 66.5C48.8397 62.8895 51.9925 59.7895 56.4993 52.5C40.9511 52.481 34.9842 49.1424 28.4993 38C27.2567 35.4173 26.4094 35.2365 24.4993 38C25.5166 43.042 27.2831 45.8062 32.4993 50.5V55H48.4993C48.4993 66.5 14.378 66 13.4998 60.5C11.8468 50.1482 12.7839 44.4903 17.4998 34.5C21.4993 26.027 39.4997 25 35.9997 38C41.4093 45.5873 46.0028 47.4456 57.9997 47C59.7185 39.5095 62.5301 37.2985 70.4997 36.5L66.4997 32.5C66.165 29.3793 67.0991 28.5296 69.9997 28L84.4997 42.5C99.9997 59 94.3587 70.1581 80.9997 59H72.4997C68.4082 79.4582 62.9015 89.9204 47.9997 107Z" stroke="black" stroke-width="1.5"/>
<path d="M48.5 110.5H17.5V116.5H48.5V110.5Z" stroke="black" stroke-width="1.5"/>
<path d="M48.5 119.5H17.5V125.5H48.5V119.5Z" stroke="black" stroke-width="1.5"/>
<circle cx="78.5" cy="47.5" r="3.5" stroke="black" stroke-width="1.5"/>
</svg>
