<svg width="126" height="113" viewBox="0 0 126 113" fill="none" xmlns="http://www.w3.org/2000/svg">
<path d="M60.6896 42.1684L15.1095 66.898C14.5428 67.2055 14.432 67.9851 14.8734 68.4551C34.7062 89.5773 45.0452 61.8284 54.8605 65.9394C54.951 65.9773 55.0428 66.0373 55.1168 66.1016C82.988 90.3008 86.1293 65.8644 97.854 67.8387C98.9081 68.0161 100.12 66.6455 99.5323 65.7528L75 28.5C73.2523 24.9699 73.9251 24.2094 76 23.5L96.9119 19.5168C96.9705 19.5056 97.0301 19.4885 97.0858 19.4668C109.946 14.4565 106.992 1.08515 95.1136 1.0004C95.0397 0.999877 94.9636 1.00821 94.8914 1.02446L59.6294 8.97084C59.5435 8.99019 59.4587 9.0217 59.381 9.06306C53.6469 12.1141 52.2339 14.7909 53.4607 21.295C53.4859 21.4285 53.5395 21.5579 53.616 21.6701L61 32.5C62.7841 36.0991 62.5609 38.1652 61.1346 41.6732C61.0485 41.8849 60.8904 42.0594 60.6896 42.1684Z" stroke="black" stroke-width="1.5"/>
<path d="M1 85.0005C6.32326 80.4548 8.93237 80.5857 13 85.0005C25.3294 98.6851 32.5 98.5003 42.5 85.0005C48 78.5002 55 79.0001 59.5 85.0005C69.4104 99.3702 83.7406 97.5346 90.3234 85.3338C90.4415 85.1149 90.5794 84.8977 90.7365 84.7048C96.1612 78.0439 101.689 79.5788 105 85.0005C113 97 121.5 98 125 90.5" stroke="black" stroke-width="1.5" stroke-linejoin="round"/>
<path d="M1 101C6.32326 96.4548 8.93237 96.5857 13 101C25.3294 114.685 32.5 114.5 42.5 101C48 94.5002 55 95.0001 59.5 101C69.4104 115.37 83.7406 113.535 90.3234 101.334C90.4415 101.115 90.5794 100.898 90.7365 100.705C96.1612 94.0439 101.689 95.5788 105 101C113 113 121.5 114 125 106.5" stroke="black" stroke-width="1.5" stroke-linejoin="round"/>
<circle cx="104.5" cy="40.5" r="14.5" stroke="black" stroke-width="1.5"/>
</svg>
