<svg width="123" height="122" viewBox="0 0 123 122" fill="none" xmlns="http://www.w3.org/2000/svg">
<path d="M22 21L1 2V86L22 68V21Z" stroke="black" stroke-width="1.5"/>
<path d="M101 21L122 2V86L101 68V21Z" stroke="black" stroke-width="1.5"/>
<path d="M93 22.5H27.5V66.5H93V22.5Z" stroke="black" stroke-width="1.5"/>
<path d="M36.4999 121H4.49984C4.23338 107.884 9.50005 101.5 21.4998 101.5C34 103 36.4999 109 36.4999 121Z" stroke="black" stroke-width="1.5"/>
<circle cx="20.5" cy="89.5" r="9.5" stroke="black" stroke-width="1.5"/>
<path d="M76.0096 121H44.0096C43.7431 107.884 49.0098 101.5 61.0096 101.5C73.5098 103 76.0096 109 76.0096 121Z" stroke="black" stroke-width="1.5"/>
<circle cx="60.0098" cy="89.5" r="9.5" stroke="black" stroke-width="1.5"/>
<path d="M115.01 121H83.0096C82.7431 107.884 88.0098 101.5 100.01 101.5C112.51 103 115.01 109 115.01 121Z" stroke="black" stroke-width="1.5"/>
<circle cx="99.0098" cy="89.5" r="9.5" stroke="black" stroke-width="1.5"/>
</svg>
