<svg width="14" height="14" viewBox="0 0 14 14" fill="none" xmlns="http://www.w3.org/2000/svg">
<g clip-path="url(#clip0_493_549)">
<path d="M13.1037 2.4889C12.6164 2.70265 12.0972 2.84433 11.5558 2.91313C12.1127 2.58062 12.5378 2.05811 12.7376 1.42832C12.2184 1.73789 11.6451 1.95656 11.0341 2.07859C10.5411 1.55362 9.83842 1.22849 9.07185 1.22849C7.58458 1.22849 6.38723 2.43566 6.38723 3.91556C6.38723 4.1285 6.40525 4.33324 6.44948 4.52816C4.21611 4.41924 2.23991 3.34883 0.912345 1.71824C0.680573 2.12036 0.544622 2.58062 0.544622 3.07611C0.544622 4.00647 1.02373 4.83118 1.73788 5.30865C1.30627 5.30046 0.882862 5.17516 0.524148 4.97778C0.524148 4.98597 0.524148 4.99662 0.524148 5.00726C0.524148 6.31272 1.45533 7.39705 2.67643 7.64684C2.45776 7.70663 2.21944 7.73529 1.97211 7.73529C1.80012 7.73529 1.6265 7.72546 1.46352 7.68943C1.81159 8.75328 2.79928 9.53541 3.9737 9.5608C3.05971 10.2758 1.89922 10.7066 0.6429 10.7066C0.422594 10.7066 0.211297 10.6967 0 10.6697C1.18998 11.4371 2.60027 11.8752 4.12111 11.8752C9.06448 11.8752 11.7671 7.78033 11.7671 4.23087C11.7671 4.11212 11.763 3.99746 11.7573 3.88362C12.2905 3.50525 12.7384 3.0327 13.1037 2.4889Z" fill="white"/>
</g>
<defs>
<clipPath id="clip0_493_549">
<rect width="13.1037" height="13.1037" fill="white"/>
</clipPath>
</defs>
</svg>
