<svg width="113" height="121" viewBox="0 0 113 121" fill="none" xmlns="http://www.w3.org/2000/svg">
<path d="M87.6384 108C87.8396 107.962 88.0399 107.923 88.2392 107.882M88.2392 107.882C97.5073 105.98 104.607 100.8 103.138 91.5C110.829 91.6027 113.638 88 110.638 82.5C101.138 71 82.6384 99 83.6384 40.5C79.1384 31.5 68.1384 38 65.1386 30.5V23.5005C80.6384 -6.99998 33.1385 -6.00009 47.6386 23.5005V30.5C47.6386 37.5 32.2336 33 31.6384 40.5C29.1389 72 28.6389 78.5 9.13849 80C0.63875 78 -5.36133 94.5 13.1392 89.5C13.1392 100.5 14.6387 108 23.6384 108V111.5C20.8486 118.95 27.6385 121.5 31.6384 117C37.6385 111.5 46.1384 122 54.6384 114C63.6384 122 70.1384 114 78.6384 117C83.1384 122.5 94.1384 117 88.2392 111.5V107.882Z" stroke="black" stroke-width="1.5" stroke-linejoin="round"/>
<path d="M20.6384 87.9997C18.1387 87.4997 18.1388 83.9997 20.6384 83.4997C32.1515 85.6072 36.231 80.704 36.6384 59.9997C37.1387 57.0001 42.6387 58 42.1387 61.9997L41.1387 77.0001C40.6387 81.5001 37.2062 90.3561 25.1387 88.5001L20.6384 87.9997Z" stroke="black" stroke-width="1.5" stroke-linejoin="round"/>
<path d="M93.2961 87.9997C95.7959 87.4997 95.7958 83.9997 93.2961 83.4997C81.783 85.6072 77.7035 80.704 77.2961 59.9997C76.7959 57.0001 71.2959 58 71.7959 61.9997L72.7959 77.0001C73.2959 81.5001 76.7284 90.3561 88.7959 88.5001L93.2961 87.9997Z" stroke="black" stroke-width="1.5" stroke-linejoin="round"/>
</svg>
